{
    "asset" : {
        "generator" : "Khronos glTF Blender I/O v1.7.33",
        "version" : "2.0"
    },
    "scene" : 0,
    "scenes" : [
        {
            "name" : "Scene",
            "nodes" : [
                0
            ]
        }
    ],
    "nodes" : [
        {
            "mesh" : 0,
            "name" : "Sphere.005",
            "scale" : [
                1,
                5,
                10
            ],
            "translation" : [
                0,
                0,
                -44.376220703125
            ]
        }
    ],
    "materials" : [
        {
            "doubleSided" : true,
            "name" : "Material.005",
            "pbrMetallicRoughness" : {
                "baseColorFactor" : [
                    0.04623936116695404,
                    0.2812042534351349,
                    0.052613865584135056,
                    1
                ],
                "metallicFactor" : 0,
                "roughnessFactor" : 0.5
            }
        },
        {
            "doubleSided" : true,
            "name" : "Material.004",
            "pbrMetallicRoughness" : {
                "baseColorFactor" : [
                    0.022941231727600098,
                    0.15319322049617767,
                    0.011543753556907177,
                    1
                ],
                "metallicFactor" : 0,
                "roughnessFactor" : 0.5
            }
        },
        {
            "doubleSided" : true,
            "name" : "Material.003",
            "pbrMetallicRoughness" : {
                "baseColorFactor" : [
                    0.09120241552591324,
                    0.242275670170784,
                    0.008519823662936687,
                    1
                ],
                "metallicFactor" : 0,
                "roughnessFactor" : 0.5
            }
        },
        {
            "doubleSided" : true,
            "name" : "Material.002",
            "pbrMetallicRoughness" : {
                "baseColorFactor" : [
                    0.07658498734235764,
                    0.41885340213775635,
                    0.02711867354810238,
                    1
                ],
                "metallicFactor" : 0,
                "roughnessFactor" : 0.5
            }
        },
        {
            "doubleSided" : true,
            "name" : "Material.001",
            "pbrMetallicRoughness" : {
                "baseColorFactor" : [
                    0.011714879423379898,
                    0.2066866010427475,
                    0.006756034679710865,
                    1
                ],
                "metallicFactor" : 0,
                "roughnessFactor" : 0.5
            }
        }
    ],
    "meshes" : [
        {
            "name" : "Sphere.005",
            "primitives" : [
                {
                    "attributes" : {
                        "POSITION" : 0,
                        "NORMAL" : 1,
                        "TEXCOORD_0" : 2
                    },
                    "indices" : 3,
                    "material" : 0
                },
                {
                    "attributes" : {
                        "POSITION" : 4,
                        "NORMAL" : 5,
                        "TEXCOORD_0" : 6
                    },
                    "indices" : 7,
                    "material" : 1
                },
                {
                    "attributes" : {
                        "POSITION" : 8,
                        "NORMAL" : 9,
                        "TEXCOORD_0" : 10
                    },
                    "indices" : 11,
                    "material" : 2
                },
                {
                    "attributes" : {
                        "POSITION" : 12,
                        "NORMAL" : 13,
                        "TEXCOORD_0" : 14
                    },
                    "indices" : 15,
                    "material" : 3
                },
                {
                    "attributes" : {
                        "POSITION" : 16,
                        "NORMAL" : 17,
                        "TEXCOORD_0" : 18
                    },
                    "indices" : 19,
                    "material" : 4
                }
            ]
        }
    ],
    "accessors" : [
        {
            "bufferView" : 0,
            "componentType" : 5126,
            "count" : 7936,
            "max" : [
                0.9999997019767761,
                1.7073345184326172,
                9.655196189880371
            ],
            "min" : [
                -1.675620675086975,
                -1.3882238864898682,
                -0.9999987483024597
            ],
            "type" : "VEC3"
        },
        {
            "bufferView" : 1,
            "componentType" : 5126,
            "count" : 7936,
            "type" : "VEC3"
        },
        {
            "bufferView" : 2,
            "componentType" : 5126,
            "count" : 7936,
            "type" : "VEC2"
        },
        {
            "bufferView" : 3,
            "componentType" : 5123,
            "count" : 11520,
            "type" : "SCALAR"
        },
        {
            "bufferView" : 4,
            "componentType" : 5126,
            "count" : 7936,
            "max" : [
                0.9999997019767761,
                2.5403313636779785,
                11.085503578186035
            ],
            "min" : [
                -0.9999990463256836,
                -1.3353184461593628,
                -0.07090950012207031
            ],
            "type" : "VEC3"
        },
        {
            "bufferView" : 5,
            "componentType" : 5126,
            "count" : 7936,
            "type" : "VEC3"
        },
        {
            "bufferView" : 6,
            "componentType" : 5126,
            "count" : 7936,
            "type" : "VEC2"
        },
        {
            "bufferView" : 7,
            "componentType" : 5123,
            "count" : 11520,
            "type" : "SCALAR"
        },
        {
            "bufferView" : 8,
            "componentType" : 5126,
            "count" : 7936,
            "max" : [
                1.0985146760940552,
                1.6359273195266724,
                10.474261283874512
            ],
            "min" : [
                -1.3727103471755981,
                -0.6433890461921692,
                -1.647913932800293
            ],
            "type" : "VEC3"
        },
        {
            "bufferView" : 9,
            "componentType" : 5126,
            "count" : 7936,
            "type" : "VEC3"
        },
        {
            "bufferView" : 10,
            "componentType" : 5126,
            "count" : 7936,
            "type" : "VEC2"
        },
        {
            "bufferView" : 11,
            "componentType" : 5123,
            "count" : 11520,
            "type" : "SCALAR"
        },
        {
            "bufferView" : 12,
            "componentType" : 5126,
            "count" : 7936,
            "max" : [
                0.9999997019767761,
                2.442532539367676,
                9.227325439453125
            ],
            "min" : [
                -0.9999990463256836,
                -0.9999998807907104,
                -2.112460136413574
            ],
            "type" : "VEC3"
        },
        {
            "bufferView" : 13,
            "componentType" : 5126,
            "count" : 7936,
            "type" : "VEC3"
        },
        {
            "bufferView" : 14,
            "componentType" : 5126,
            "count" : 7936,
            "type" : "VEC2"
        },
        {
            "bufferView" : 15,
            "componentType" : 5123,
            "count" : 11520,
            "type" : "SCALAR"
        },
        {
            "bufferView" : 16,
            "componentType" : 5126,
            "count" : 9920,
            "max" : [
                0.9999997019767761,
                2.6870293617248535,
                9.924140930175781
            ],
            "min" : [
                -1.4223997592926025,
                -1.4465315341949463,
                -0.7677260637283325
            ],
            "type" : "VEC3"
        },
        {
            "bufferView" : 17,
            "componentType" : 5126,
            "count" : 9920,
            "type" : "VEC3"
        },
        {
            "bufferView" : 18,
            "componentType" : 5126,
            "count" : 9920,
            "type" : "VEC2"
        },
        {
            "bufferView" : 19,
            "componentType" : 5123,
            "count" : 14400,
            "type" : "SCALAR"
        }
    ],
    "bufferViews" : [
        {
            "buffer" : 0,
            "byteLength" : 95232,
            "byteOffset" : 0
        },
        {
            "buffer" : 0,
            "byteLength" : 95232,
            "byteOffset" : 95232
        },
        {
            "buffer" : 0,
            "byteLength" : 63488,
            "byteOffset" : 190464
        },
        {
            "buffer" : 0,
            "byteLength" : 23040,
            "byteOffset" : 253952
        },
        {
            "buffer" : 0,
            "byteLength" : 95232,
            "byteOffset" : 276992
        },
        {
            "buffer" : 0,
            "byteLength" : 95232,
            "byteOffset" : 372224
        },
        {
            "buffer" : 0,
            "byteLength" : 63488,
            "byteOffset" : 467456
        },
        {
            "buffer" : 0,
            "byteLength" : 23040,
            "byteOffset" : 530944
        },
        {
            "buffer" : 0,
            "byteLength" : 95232,
            "byteOffset" : 553984
        },
        {
            "buffer" : 0,
            "byteLength" : 95232,
            "byteOffset" : 649216
        },
        {
            "buffer" : 0,
            "byteLength" : 63488,
            "byteOffset" : 744448
        },
        {
            "buffer" : 0,
            "byteLength" : 23040,
            "byteOffset" : 807936
        },
        {
            "buffer" : 0,
            "byteLength" : 95232,
            "byteOffset" : 830976
        },
        {
            "buffer" : 0,
            "byteLength" : 95232,
            "byteOffset" : 926208
        },
        {
            "buffer" : 0,
            "byteLength" : 63488,
            "byteOffset" : 1021440
        },
        {
            "buffer" : 0,
            "byteLength" : 23040,
            "byteOffset" : 1084928
        },
        {
            "buffer" : 0,
            "byteLength" : 119040,
            "byteOffset" : 1107968
        },
        {
            "buffer" : 0,
            "byteLength" : 119040,
            "byteOffset" : 1227008
        },
        {
            "buffer" : 0,
            "byteLength" : 79360,
            "byteOffset" : 1346048
        },
        {
            "buffer" : 0,
            "byteLength" : 28800,
            "byteOffset" : 1425408
        }
    ],
    "buffers" : [
        {
            "byteLength" : 1454208,
            "uri" : "data:application/octet-stream;base64,"
        }
    ]
}
