{
    "asset" : {
        "generator" : "Khronos glTF Blender I/O v1.2.75",
        "version" : "2.0"
    },
    "scene" : 0,
    "scenes" : [
        {
            "name" : "Scene",
            "nodes" : [
                0,
                1,
                2
            ]
        }
    ],
    "nodes" : [
        {
            "name" : "Light",
            "rotation" : [
                0.16907575726509094,
                0.7558803558349609,
                -0.27217137813568115,
                0.570947527885437
            ],
            "translation" : [
                4.076245307922363,
                5.903861999511719,
                -1.0054539442062378
            ]
        },
        {
            "name" : "Camera",
            "rotation" : [
                0.483536034822464,
                0.33687159419059753,
                -0.20870360732078552,
                0.7804827094078064
            ],
            "translation" : [
                7.358891487121582,
                4.958309173583984,
                6.925790786743164
            ]
        },
        {
            "mesh" : 0,
            "name" : "Cylinder.001",
            "rotation" : [
                0,
                0,
                -0.7071067690849304,
                -0.7071067690849304
            ],
            "scale" : [
                1,
                0.10000000149011612,
                1
            ],
            "translation" : [
                0,
                2.059999942779541,
                0
            ]
        }
    ],
    "materials" : [
        {
            "doubleSided" : true,
            "emissiveFactor" : [
                0,
                0,
                0
            ],
            "name" : "Material.001",
            "pbrMetallicRoughness" : {
                "baseColorFactor" : [
                    0.014015154913067818,
                    0.061681125313043594,
                    0.41156846284866333,
                    1
                ],
                "metallicFactor" : 0,
                "roughnessFactor" : 0.5
            }
        },
        {
            "doubleSided" : true,
            "emissiveFactor" : [
                0,
                0,
                0
            ],
            "name" : "Material.002",
            "pbrMetallicRoughness" : {
                "baseColorFactor" : [
                    0.5372106432914734,
                    0.5372106432914734,
                    0.5372106432914734,
                    1
                ],
                "metallicFactor" : 0,
                "roughnessFactor" : 0.5
            }
        }
    ],
    "meshes" : [
        {
            "name" : "Cylinder.001",
            "primitives" : [
                {
                    "attributes" : {
                        "POSITION" : 0,
                        "NORMAL" : 1,
                        "TEXCOORD_0" : 2
                    },
                    "indices" : 3,
                    "material" : 0
                },
                {
                    "attributes" : {
                        "POSITION" : 4,
                        "NORMAL" : 5,
                        "TEXCOORD_0" : 6
                    },
                    "indices" : 7,
                    "material" : 1
                }
            ]
        }
    ],
    "accessors" : [
        {
            "bufferView" : 0,
            "componentType" : 5126,
            "count" : 2692,
            "max" : [
                1,
                1,
                1
            ],
            "min" : [
                -2.809999942779541,
                -1.103939175605774,
                -1
            ],
            "type" : "VEC3"
        },
        {
            "bufferView" : 1,
            "componentType" : 5126,
            "count" : 2692,
            "type" : "VEC3"
        },
        {
            "bufferView" : 2,
            "componentType" : 5126,
            "count" : 2692,
            "type" : "VEC2"
        },
        {
            "bufferView" : 3,
            "componentType" : 5123,
            "count" : 5400,
            "type" : "SCALAR"
        },
        {
            "bufferView" : 4,
            "componentType" : 5126,
            "count" : 170,
            "max" : [
                0.9365426301956177,
                0.5420864820480347,
                0.9201897382736206
            ],
            "min" : [
                -1.366601586341858,
                0.08417270332574844,
                -0.9106656908988953
            ],
            "type" : "VEC3"
        },
        {
            "bufferView" : 5,
            "componentType" : 5126,
            "count" : 170,
            "type" : "VEC3"
        },
        {
            "bufferView" : 6,
            "componentType" : 5126,
            "count" : 170,
            "type" : "VEC2"
        },
        {
            "bufferView" : 7,
            "componentType" : 5123,
            "count" : 288,
            "type" : "SCALAR"
        }
    ],
    "bufferViews" : [
        {
            "buffer" : 0,
            "byteLength" : 32304,
            "byteOffset" : 0
        },
        {
            "buffer" : 0,
            "byteLength" : 32304,
            "byteOffset" : 32304
        },
        {
            "buffer" : 0,
            "byteLength" : 21536,
            "byteOffset" : 64608
        },
        {
            "buffer" : 0,
            "byteLength" : 10800,
            "byteOffset" : 86144
        },
        {
            "buffer" : 0,
            "byteLength" : 2040,
            "byteOffset" : 96944
        },
        {
            "buffer" : 0,
            "byteLength" : 2040,
            "byteOffset" : 98984
        },
        {
            "buffer" : 0,
            "byteLength" : 1360,
            "byteOffset" : 101024
        },
        {
            "buffer" : 0,
            "byteLength" : 576,
            "byteOffset" : 102384
        }
    ],
    "buffers" : [
        {
            "byteLength" : 102960,
            "uri" : "data:application/octet-stream;base64,"
        }
    ]
}
